<svg width="56" height="56" viewBox="0 0 56 56" fill="none" xmlns="http://www.w3.org/2000/svg">
<rect width="56" height="56" rx="16" fill="url(#paint0_linear_144_29)"/>
<path d="M23.8 18H32.2C35.4 18 38 20.6 38 23.8V32.2C38 33.7383 37.3889 35.2135 36.3012 36.3012C35.2135 37.3889 33.7383 38 32.2 38H23.8C20.6 38 18 35.4 18 32.2V23.8C18 22.2617 18.6111 20.7865 19.6988 19.6988C20.7865 18.6111 22.2617 18 23.8 18ZM23.6 20C22.6452 20 21.7295 20.3793 21.0544 21.0544C20.3793 21.7295 20 22.6452 20 23.6V32.4C20 34.39 21.61 36 23.6 36H32.4C33.3548 36 34.2705 35.6207 34.9456 34.9456C35.6207 34.2705 36 33.3548 36 32.4V23.6C36 21.61 34.39 20 32.4 20H23.6ZM33.25 21.5C33.5815 21.5 33.8995 21.6317 34.1339 21.8661C34.3683 22.1005 34.5 22.4185 34.5 22.75C34.5 23.0815 34.3683 23.3995 34.1339 23.6339C33.8995 23.8683 33.5815 24 33.25 24C32.9185 24 32.6005 23.8683 32.3661 23.6339C32.1317 23.3995 32 23.0815 32 22.75C32 22.4185 32.1317 22.1005 32.3661 21.8661C32.6005 21.6317 32.9185 21.5 33.25 21.5ZM28 23C29.3261 23 30.5979 23.5268 31.5355 24.4645C32.4732 25.4021 33 26.6739 33 28C33 29.3261 32.4732 30.5979 31.5355 31.5355C30.5979 32.4732 29.3261 33 28 33C26.6739 33 25.4021 32.4732 24.4645 31.5355C23.5268 30.5979 23 29.3261 23 28C23 26.6739 23.5268 25.4021 24.4645 24.4645C25.4021 23.5268 26.6739 23 28 23ZM28 25C27.2044 25 26.4413 25.3161 25.8787 25.8787C25.3161 26.4413 25 27.2044 25 28C25 28.7956 25.3161 29.5587 25.8787 30.1213C26.4413 30.6839 27.2044 31 28 31C28.7956 31 29.5587 30.6839 30.1213 30.1213C30.6839 29.5587 31 28.7956 31 28C31 27.2044 30.6839 26.4413 30.1213 25.8787C29.5587 25.3161 28.7956 25 28 25Z" fill="white"/>
<defs>
<linearGradient id="paint0_linear_144_29" x1="7.0408e-07" y1="8.75" x2="42" y2="36.75" gradientUnits="userSpaceOnUse">
<stop stop-color="#30A9C6"/>
<stop offset="1" stop-color="#01B4A6"/>
</linearGradient>
</defs>
</svg>
